<?xml version="1.0" encoding="UTF-8" standalone="no"?>
<!-- Created with Inkscape (http://www.inkscape.org/) -->

<svg
   xmlns:osb="http://www.openswatchbook.org/uri/2009/osb"
   xmlns:dc="http://purl.org/dc/elements/1.1/"
   xmlns:cc="http://creativecommons.org/ns#"
   xmlns:rdf="http://www.w3.org/1999/02/22-rdf-syntax-ns#"
   xmlns:svg="http://www.w3.org/2000/svg"
   xmlns="http://www.w3.org/2000/svg"
   xmlns:xlink="http://www.w3.org/1999/xlink"
   xmlns:sodipodi="http://sodipodi.sourceforge.net/DTD/sodipodi-0.dtd"
   xmlns:inkscape="http://www.inkscape.org/namespaces/inkscape"
   id="svg2"
   version="1.1"
   inkscape:version="0.48.4 r9939"
   width="637"
   height="850"
   sodipodi:docname="logo_phileas.svg"
   inkscape:export-filename="/home/eric/_mesdocs/mes_vcs/phileas_t2tjs_wiki/phileas/logo_phileas.png"
   inkscape:export-xdpi="125.10979"
   inkscape:export-ydpi="125.10979">
  <metadata
     id="metadata8">
    <rdf:RDF>
      <cc:Work
         rdf:about="">
        <dc:format>image/svg+xml</dc:format>
        <dc:type
           rdf:resource="http://purl.org/dc/dcmitype/StillImage" />
        <dc:title></dc:title>
      </cc:Work>
    </rdf:RDF>
  </metadata>
  <defs
     id="defs6">
    <linearGradient
       inkscape:collect="always"
       id="linearGradient3867">
      <stop
         style="stop-color:#ffffff;stop-opacity:1;"
         offset="0"
         id="stop3869" />
      <stop
         style="stop-color:#ffffff;stop-opacity:0;"
         offset="1"
         id="stop3871" />
    </linearGradient>
    <linearGradient
       id="linearGradient3861">
      <stop
         id="stop3863"
         offset="0"
         style="stop-color:#ffffff;stop-opacity:1;" />
      <stop
         id="stop3865"
         offset="1"
         style="stop-color:#ffffff;stop-opacity:0;" />
    </linearGradient>
    <linearGradient
       id="linearGradient3853">
      <stop
         style="stop-color:#ffffff;stop-opacity:1;"
         offset="0"
         id="stop3855" />
      <stop
         style="stop-color:#ffffff;stop-opacity:0;"
         offset="1"
         id="stop3857" />
    </linearGradient>
    <linearGradient
       id="linearGradient3833"
       osb:paint="gradient">
      <stop
         style="stop-color:#ffffff;stop-opacity:1;"
         offset="0"
         id="stop3835" />
      <stop
         id="stop3845"
         offset="0.5"
         style="stop-color:#7f7f7f;stop-opacity:0.49803922;" />
      <stop
         style="stop-color:#000000;stop-opacity:0"
         offset="1"
         id="stop3837" />
    </linearGradient>
    <linearGradient
       inkscape:collect="always"
       xlink:href="#linearGradient3867"
       id="linearGradient3873"
       x1="146.57904"
       y1="182.22109"
       x2="156.74521"
       y2="181.20811"
       gradientUnits="userSpaceOnUse" />
    <linearGradient
       inkscape:collect="always"
       xlink:href="#linearGradient3867"
       id="linearGradient3657"
       gradientUnits="userSpaceOnUse"
       x1="146.57904"
       y1="182.22109"
       x2="156.74521"
       y2="181.20811"
       gradientTransform="matrix(-0.60026381,-0.14100157,0.08742585,-0.96811337,262.14538,380.88326)" />
  </defs>
  <sodipodi:namedview
     pagecolor="#ffffff"
     bordercolor="#666666"
     borderopacity="1"
     objecttolerance="10"
     gridtolerance="10"
     guidetolerance="10"
     inkscape:pageopacity="0"
     inkscape:pageshadow="2"
     inkscape:window-width="1280"
     inkscape:window-height="938"
     id="namedview4"
     showgrid="false"
     inkscape:zoom="3.1412179"
     inkscape:cx="218.8629"
     inkscape:cy="658.35278"
     inkscape:window-x="-8"
     inkscape:window-y="-3"
     inkscape:window-maximized="1"
     inkscape:current-layer="g3659" />
  <g
     id="g3659"
     inkscape:export-filename="/home/eric/_mesdocs/mes_vcs/phileas_t2tjs_wiki/phileas/logo_phileas.png"
     inkscape:export-xdpi="125.10979"
     inkscape:export-ydpi="125.10979">
    <path
       sodipodi:nodetypes="ccccc"
       inkscape:connector-curvature="0"
       id="path3317"
       d="m 195.38923,197.82488 c -7.90472,-1.86101 -30.36944,-0.40437 -51.8637,0.51437 -0.15215,1.34428 -0.10467,2.61452 0.0491,3.81287 8.9739,0.36726 43.74057,1.60678 52.55105,0.91634 z"
       style="color:#000000;fill:#000000;fill-opacity:1;fill-rule:nonzero;stroke:#ffffff;stroke-width:2.03657889;stroke-linecap:butt;stroke-linejoin:miter;stroke-miterlimit:4;stroke-opacity:1;stroke-dasharray:none;stroke-dashoffset:0;marker:none;visibility:visible;display:inline;overflow:visible;enable-background:accumulate"
       inkscape:export-filename="/home/eric/_mesdocs/mes_vcs/phileas_t2tjs_wiki/phileas/logo_phileas.png"
       inkscape:export-xdpi="125.10979"
       inkscape:export-ydpi="125.10979" />
    <path
       inkscape:export-ydpi="125.10979"
       inkscape:export-xdpi="125.10979"
       inkscape:export-filename="/home/eric/_mesdocs/mes_vcs/phileas_t2tjs_wiki/phileas/logo_phileas.png"
       sodipodi:nodetypes="cscssccscc"
       inkscape:connector-curvature="0"
       id="path2989"
       d="m 144.37076,202.79879 c 0.0168,-5.14437 0.174,-10.20987 -0.5763,-15.43709 -1.17143,-8.16119 -2.79561,-9.91756 -3.73943,-14.97974 -0.49398,-2.76744 2.3335,-4.42972 4.38009,-5.57187 7.88458,-4.40017 17.08772,-5.74868 26.03634,-5.54536 7.65172,0.17385 15.39829,1.45265 22.23917,5.01255 1.40608,0.60536 1.85942,1.37668 1.44053,2.44617 -0.35093,6.59212 -1.36649,12.74895 -0.96754,19.34237 0.49198,8.13096 1.25601,11.25062 2.20238,16.24512 z"
       style="fill:#000000;stroke:#ffffff;stroke-width:2;stroke-linecap:butt;stroke-linejoin:miter;stroke-opacity:1;stroke-miterlimit:4;stroke-dasharray:none" />
    <path
       inkscape:export-ydpi="125.10979"
       inkscape:export-xdpi="125.10979"
       inkscape:export-filename="/home/eric/_mesdocs/mes_vcs/phileas_t2tjs_wiki/phileas/logo_phileas.png"
       style="fill:#333333;stroke:none"
       d="m 194.35651,198.25269 c -7.58015,-1.87162 -29.38762,-0.92818 -49.9993,-0.004 -0.14591,1.35193 0.0522,2.86953 0.19975,4.07471 8.60542,0.36935 41.94453,1.61593 50.39324,0.92156 z"
       id="path3051"
       inkscape:connector-curvature="0"
       sodipodi:nodetypes="ccccc" />
    <path
       inkscape:export-ydpi="125.10979"
       inkscape:export-xdpi="125.10979"
       inkscape:export-filename="/home/eric/_mesdocs/mes_vcs/phileas_t2tjs_wiki/phileas/logo_phileas.png"
       sodipodi:nodetypes="czszzssssc"
       inkscape:connector-curvature="0"
       id="path2987"
       d="m 139.91389,221.1038 c -3.31626,-1.06686 -8.88969,-4.58373 -9.23691,-9.40145 -0.34722,-4.81772 3.64107,-7.11218 7.02214,-8.0073 9.20056,-2.43577 22.08202,-0.73265 36.48795,-0.21495 14.40593,0.5177 23.9479,-0.18703 27.63955,-0.0769 3.69165,0.11009 7.65395,1.88213 7.38517,5.33911 -0.26001,3.34425 -4.18481,7.57985 -13.52285,10.5927 -7.13891,2.30331 -14.31878,3.40671 -20.91742,3.97918 -9.72547,0.84373 -22.52355,1.75757 -34.85763,-2.21035 z"
       style="fill:#000000;stroke:#ffffff;stroke-width:2;stroke-linecap:butt;stroke-linejoin:miter;stroke-opacity:1;stroke-miterlimit:4;stroke-dasharray:none" />
    <path
       inkscape:export-ydpi="125.10979"
       inkscape:export-xdpi="125.10979"
       inkscape:export-filename="/home/eric/_mesdocs/mes_vcs/phileas_t2tjs_wiki/phileas/logo_phileas.png"
       sodipodi:nodetypes="cssc"
       inkscape:connector-curvature="0"
       id="path2991"
       d="m 145.36243,215.22394 c 0.0612,-0.81804 0.54959,-1.59388 1.68529,-2.30856 10.95322,-6.8927 38.25698,-8.48825 45.20666,-2.18432 1.76689,1.60272 1.45631,2.46188 1.61583,2.97401"
       style="fill:none;stroke:#999999;stroke-width:1.88309944;stroke-linecap:round;stroke-linejoin:miter;stroke-miterlimit:4;stroke-opacity:1;stroke-dasharray:none" />
    <path
       inkscape:export-filename="/home/eric/_mesdocs/mes_vcs/phileas_t2tjs_wiki/phileas/logo_phileas.png"
       inkscape:export-ydpi="125.10979"
       inkscape:export-xdpi="125.10979"
       sodipodi:nodetypes="ccccccc"
       inkscape:connector-curvature="0"
       id="path3049"
       d="m 147.59202,171.10962 c 2.36301,8.32428 3.10783,15.90593 2.67919,24.43884 l 0,0 1.05491,0 7.44505,-0.47301 c -0.11747,-8.5315 0.0402,-18.25703 -1.82402,-26.57967 -2.79394,0.51423 -5.48942,-0.0439 -9.35513,2.61384 z"
       style="opacity:0.70731704;fill:url(#linearGradient3873);fill-opacity:1;stroke:none" />
    <path
       style="opacity:0.3;fill:url(#linearGradient3657);fill-opacity:1;stroke:none"
       d="m 188.51064,194.41905 c -0.69067,-8.39204 -0.47493,-15.83695 0.52836,-24.03734 l 0,0 -0.63322,-0.14874 c -1.38153,-0.19728 -3.49807,-0.70601 -5.05549,-0.90329 -0.67536,8.27603 -1.20331,16.8287 -0.81188,25.14882 3.20746,-1.0804 4.9245,0.0161 5.97223,-0.0595 z"
       id="path3655"
       inkscape:connector-curvature="0"
       sodipodi:nodetypes="ccccccc"
       inkscape:export-xdpi="125.10979"
       inkscape:export-ydpi="125.10979"
       inkscape:export-filename="/home/eric/_mesdocs/mes_vcs/phileas_t2tjs_wiki/phileas/logo_phileas.png" />
  </g>
</svg>
